<svg enable-background="new 0 0 512 512" height="512" viewBox="0 0 512 512" width="512" xmlns="http://www.w3.org/2000/svg"><g fill="#fff"><path d="m405.333 96v341.333h-32-234.666-32v-341.333h32 234.667z"/><path d="m405.333 437.333v42.667c-.035 11.768-9.566 21.298-21.333 21.333h-256c-11.767-.035-21.298-9.566-21.333-21.333v-42.667z"/><path d="m405.333 32v64h-298.666v-64c.035-11.767 9.566-21.298 21.333-21.333h256c11.768.035 21.298 9.566 21.333 21.333z"/></g><path d="m245.333 213.333v42.667h-42.667c-5.891 0-10.667-4.776-10.667-10.667v-21.333c0-5.891 4.776-10.667 10.667-10.667z" fill="#f2f2f2"/><circle cx="96" cy="234.667" fill="#f2f2f2" r="21.333"/><path d="m426.667 256h53.333v160c-.035 11.768-9.566 21.298-21.333 21.333h-149.334c-11.767-.035-21.298-9.565-21.333-21.333v-160z" fill="#90a4b1"/><path d="m32 352v-170.667c0-5.891 4.776-10.667 10.667-10.667h234.667c5.891 0 10.667 4.776 10.667 10.667v181.333h-245.334c-5.891.001-10.667-4.775-10.667-10.666zm213.333-96v-42.667h-42.667c-5.891 0-10.667 4.776-10.667 10.667v21.333c0 5.891 4.776 10.667 10.667 10.667zm-128-21.333c0-11.782-9.551-21.333-21.333-21.333s-21.333 9.551-21.333 21.333 9.551 21.333 21.333 21.333c11.767-.035 21.298-9.566 21.333-21.333z" fill="#83e1e5"/><path d="m394.667 480c0 5.891-4.776 10.667-10.667 10.667h-256c-5.891 0-10.667-4.776-10.667-10.667v-32h149.333v-21.333h-149.333v-21.333h-21.333v74.666c0 17.673 14.327 32 32 32h256c17.673 0 32-14.327 32-32v-10.667h-21.333z"/><path d="m117.333 106.667h277.333v42.667h21.334v-117.334c0-17.673-14.327-32-32-32h-256c-17.673 0-32 14.327-32 32v96h21.333zm10.667-85.334h256c5.891 0 10.667 4.776 10.667 10.667v53.333h-277.334v-53.333c0-5.891 4.776-10.667 10.667-10.667z"/><path d="m192 42.667h85.333v21.333h-85.333z"/><path d="m298.667 42.667h21.333v21.333h-21.333z"/><path d="m96 202.667c-17.673 0-32 14.327-32 32s14.327 32 32 32 32-14.327 32-32-14.327-32-32-32zm0 42.666c-5.891 0-10.667-4.776-10.667-10.667s4.776-10.666 10.667-10.666 10.667 4.776 10.667 10.667-4.776 10.666-10.667 10.666z"/><path d="m245.333 224v-21.333h-42.667c-11.782 0-21.333 9.551-21.333 21.333v21.333c0 11.782 9.551 21.333 21.333 21.333h42.667v-21.333h-42.667v-21.333z"/><path d="m64 298.667h21.333v21.333h-21.333z"/><path d="m106.667 298.667h21.333v21.333h-21.333z"/><path d="m149.333 298.667h96v21.333h-96z"/><path d="m480 245.333h-42.667v-42.667c0-11.782-9.551-21.333-21.333-21.333h-64c-11.782 0-21.333 9.551-21.333 21.333v42.667h-42.667c-5.891 0-10.667 4.776-10.667 10.667v160c0 17.673 14.327 32 32 32h149.333c17.673 0 32-14.327 32-32v-160c.001-5.891-4.775-10.667-10.666-10.667zm-128-42.666h64v42.667h-64zm117.333 213.333c0 5.891-4.776 10.667-10.667 10.667h-149.333c-5.891 0-10.667-4.776-10.667-10.667v-149.333h32v32h21.334v-32h64v32h21.333v-32h32z"/><path d="m234.667 352h-192v-170.667h234.667v32h21.333v-32c0-11.782-9.551-21.333-21.333-21.333h-234.667c-11.782 0-21.333 9.551-21.333 21.333v170.667c0 11.782 9.551 21.333 21.333 21.333h192z"/></svg>