<?xml version="1.0"?>
<svg xmlns="http://www.w3.org/2000/svg" xmlns:xlink="http://www.w3.org/1999/xlink" version="1.1" id="Capa_1" x="0px" y="0px" viewBox="0 0 512 512" style="enable-background:new 0 0 512 512;" xml:space="preserve" width="512px" height="512px" class=""><g><g><g><g>
	<path style="fill:#83E1E5" d="M272,488h-32c-8.84,0-16-7.16-16-16l0,0c0-8.84,7.16-16,16-16h32c8.84,0,16,7.16,16,16l0,0   C288,480.84,280.84,488,272,488z" data-original="#83E1E5" class="" data-old_color="#4DB6AC"/>
	<polygon style="fill:#83E1E5" points="232,392 184,456 176,392 144,392 144,264 336,264 336,392  " data-original="#83E1E5" class="" data-old_color="#4DB6AC"/>
</g><g>
	<path style="fill:#0B0B0E" d="M112,472H88c-22.056,0-40-17.944-40-40v-96c0-22.056,17.944-40,40-40h24c13.232,0,24,10.768,24,24   v128C136,461.232,125.232,472,112,472z M88,312c-13.232,0-24,10.768-24,24v96c0,13.232,10.768,24,24,24h24c4.408,0,8-3.584,8-8V320   c0-4.416-3.592-8-8-8H88z" data-original="#0B0B0E" class="active-path" data-old_color="#1D1B4C"/>
	<path style="fill:#0B0B0E" d="M56,408H24c-13.232,0-24-10.768-24-24s10.768-24,24-24h32c4.416,0,8,3.576,8,8v32   C64,404.424,60.416,408,56,408z M24,376c-4.408,0-8,3.584-8,8s3.592,8,8,8h24v-16H24z" data-original="#0B0B0E" class="active-path" data-old_color="#1D1B4C"/>
	<path style="fill:#0B0B0E" d="M424,472h-24c-13.232,0-24-10.768-24-24V320c0-13.232,10.768-24,24-24h24c22.056,0,40,17.944,40,40   v96C464,454.056,446.056,472,424,472z M400,312c-4.408,0-8,3.584-8,8v128c0,4.416,3.592,8,8,8h24c13.232,0,24-10.768,24-24v-96   c0-13.232-10.768-24-24-24H400z" data-original="#0B0B0E" class="active-path" data-old_color="#1D1B4C"/>
	<path style="fill:#0B0B0E" d="M488,408h-32c-4.416,0-8-3.576-8-8v-32c0-4.424,3.584-8,8-8h32c13.232,0,24,10.768,24,24   S501.232,408,488,408z M464,392h24c4.408,0,8-3.584,8-8s-3.592-8-8-8h-24V392z" data-original="#0B0B0E" class="active-path" data-old_color="#1D1B4C"/>
	<path style="fill:#0B0B0E" d="M488,376c-4.416,0-8-3.576-8-8V240c0-59.864-23.288-116.136-65.576-158.424S315.872,16,256,16   C132.488,16,32,116.488,32,240v128c0,4.424-3.584,8-8,8s-8-3.576-8-8V240C16,107.664,123.664,0,256,0   c64.144,0,124.424,24.952,169.736,70.264S496,175.856,496,240v128C496,372.424,492.416,376,488,376z" data-original="#0B0B0E" class="active-path" data-old_color="#1D1B4C"/>
	<path style="fill:#0B0B0E" d="M56,248c-4.416,0-8-3.576-8-8c0-79.744,46.632-153.488,118.8-187.856   c3.976-1.896,8.768-0.216,10.664,3.784c1.896,3.984,0.208,8.76-3.784,10.656C107.048,98.32,64,166.392,64,240   C64,244.424,60.416,248,56,248z" data-original="#0B0B0E" class="active-path" data-old_color="#1D1B4C"/>
	<path style="fill:#0B0B0E" d="M456,248c-4.416,0-8-3.576-8-8c0-73.608-43.048-141.68-109.68-173.424   c-3.992-1.896-5.68-6.672-3.784-10.656c1.904-4,6.68-5.68,10.664-3.784C417.368,86.512,464,160.256,464,240   C464,244.424,460.416,248,456,248z" data-original="#0B0B0E" class="active-path" data-old_color="#1D1B4C"/>
	<path style="fill:#0B0B0E" d="M400,496H288c-4.416,0-8-3.576-8-8s3.584-8,8-8h112c4.408,0,8-3.584,8-8c0-4.424,3.584-8,8-8   s8,3.576,8,8C424,485.232,413.232,496,400,496z" data-original="#0B0B0E" class="active-path" data-old_color="#1D1B4C"/>
	<path style="fill:#0B0B0E" d="M272,512h-32c-13.232,0-24-10.768-24-24s10.768-24,24-24h32c13.232,0,24,10.768,24,24   S285.232,512,272,512z M240,480c-4.408,0-8,3.584-8,8s3.592,8,8,8h32c4.408,0,8-3.584,8-8s-3.592-8-8-8H240z" data-original="#0B0B0E" class="active-path" data-old_color="#1D1B4C"/>
	<path style="fill:#0B0B0E" d="M200,432c-0.68,0-1.368-0.088-2.056-0.264c-3.152-0.832-5.48-3.504-5.88-6.744L184.936,368H160   c-4.416,0-8-3.576-8-8V232c0-4.424,3.584-8,8-8h192c4.416,0,8,3.576,8,8v128c0,4.424-3.584,8-8,8H252l-45.6,60.8   C204.864,430.84,202.48,432,200,432z M168,352h24c4.032,0,7.44,3.008,7.936,7.008l5.544,44.352l36.12-48.16   c1.504-2.016,3.88-3.2,6.4-3.2h96V240H168V352z" data-original="#0B0B0E" class="active-path" data-old_color="#1D1B4C"/>
	<path style="fill:#0B0B0E" d="M312,288H200c-4.416,0-8-3.576-8-8s3.584-8,8-8h112c4.416,0,8,3.576,8,8S316.416,288,312,288z" data-original="#0B0B0E" class="active-path" data-old_color="#1D1B4C"/>
	<path style="fill:#0B0B0E" d="M248,320h-48c-4.416,0-8-3.576-8-8s3.584-8,8-8h48c4.416,0,8,3.576,8,8S252.416,320,248,320z" data-original="#0B0B0E" class="active-path" data-old_color="#1D1B4C"/>
	<path style="fill:#0B0B0E" d="M312,320c-2.08,0-4.16-0.88-5.68-2.32c-1.44-1.52-2.32-3.6-2.32-5.68s0.88-4.168,2.32-5.68   c3.04-2.96,8.4-2.96,11.36,0c1.44,1.512,2.32,3.6,2.32,5.68s-0.88,4.16-2.32,5.68C316.16,319.12,314.16,320,312,320z" data-original="#0B0B0E" class="active-path" data-old_color="#1D1B4C"/>
	<path style="fill:#0B0B0E" d="M280,320c-2.08,0-4.16-0.88-5.68-2.4c-1.44-1.44-2.32-3.52-2.32-5.6s0.88-4.168,2.32-5.68   c3.04-2.96,8.4-2.96,11.36,0c1.44,1.512,2.32,3.6,2.32,5.68s-0.88,4.16-2.32,5.68C284.16,319.12,282.16,320,280,320z" data-original="#0B0B0E" class="active-path" data-old_color="#1D1B4C"/>
	<path style="fill:#0B0B0E" d="M325.12,92.32c-0.928,0-1.872-0.168-2.784-0.504c-42.184-15.688-90.48-15.688-132.664,0   c-3.488,1.288-7.392,0.024-9.448-3.064l-34.56-51.84c-2.448-3.68-1.456-8.64,2.216-11.096c3.672-2.448,8.64-1.464,11.096,2.216   l31.104,46.664c42.2-14.216,89.632-14.216,131.832,0l31.104-46.664c2.448-3.68,7.416-4.664,11.096-2.216   c3.672,2.456,4.664,7.416,2.216,11.096l-34.56,51.84C330.264,91.032,327.736,92.32,325.12,92.32z" data-original="#0B0B0E" class="active-path" data-old_color="#1D1B4C"/>
</g></g></g></g> </svg>
