<?xml version="1.0"?>
<svg xmlns="http://www.w3.org/2000/svg" xmlns:xlink="http://www.w3.org/1999/xlink" version="1.1" id="Capa_1" x="0px" y="0px" viewBox="0 0 512 512" style="enable-background:new 0 0 512 512;" xml:space="preserve" width="512px" height="512px" class=""><g><g><path style="fill:#83E1E5" d="M282.573,49.482H53.44c-23.926,0-43.319,19.392-43.319,43.329v192.434  c0,23.926,19.392,43.329,43.319,43.329h4.808l12.773,50.424c5,19.767,22.752,32.924,42.246,32.924c3.542,0,7.146-0.435,10.739-1.346  l13.147,51.942l126.849-32.115l-13.299-52.559l0.557-0.142c19.838-8.552,31.922-28.268,31.295-49.128h0.02  c23.926,0,43.329-19.402,43.329-43.329V92.811C325.902,68.875,306.5,49.482,282.573,49.482z" data-original="#83E1E5" class="" data-old_color="#FBC640"/><path style="fill:#EFEFEF;" d="M68.055,189.6l-5.617-22.196c-0.455-1.791-0.668-3.593-0.668-5.364  c0-9.747,6.579-18.623,16.457-21.133c11.68-2.955,23.542,4.119,26.497,15.789l-7.49-29.584c-0.455-1.802-0.668-3.603-0.668-5.374  c0-9.747,6.579-18.613,16.457-21.123c11.67-2.955,23.532,4.119,26.487,15.789l23.825,94.097l-16.325-64.502  c-0.455-1.802-0.668-3.603-0.668-5.374c0-9.747,6.579-18.623,16.457-21.123c11.67-2.955,23.532,4.109,26.487,15.789l21.012,82.963  c-2.955-11.67,4.109-23.532,15.789-26.487l0.557-0.142c11.67-2.955,23.532,4.109,26.487,15.789L280.984,317.4  c0.941,3.725,1.457,7.469,1.569,11.174c0.628,20.86-11.457,40.576-31.295,49.128l-0.557,0.142l13.299,52.559l-126.849,32.115  l-13.147-51.942c-3.593,0.911-7.196,1.346-10.739,1.346c-19.493,0-37.246-13.158-42.246-32.924l-12.773-50.424l-7.054-27.864  L25.779,200.298c-0.455-1.791-0.668-3.593-0.668-5.364c0-9.747,6.579-18.623,16.457-21.123  C53.237,170.856,65.099,177.92,68.055,189.6z" data-original="#EFEFEF" class=""/><g>
	<path style="fill:#83E1E5" d="M471.93,208.82c7.986,7.986,18.34,13.623,29.949,15.799c-11.609,2.176-21.963,7.814-29.949,15.799   c-7.996,7.996-13.623,18.34-15.809,29.959c-4.362-23.228-22.53-41.396-45.748-45.758c11.609-2.176,21.953-7.814,29.949-15.799   c7.986-7.996,13.613-18.34,15.799-29.949C458.307,190.481,463.935,200.824,471.93,208.82z" data-original="#83E1E5" class="" data-old_color="#FBC640"/>
	<path style="fill:#83E1E5" d="M422.822,73.095c6.295,6.295,14.453,10.728,23.613,12.449c-9.16,1.721-17.317,6.164-23.613,12.459   c-6.295,6.305-10.728,14.463-12.449,23.613c-3.441-18.309-17.763-32.631-36.072-36.072c9.15-1.721,17.307-6.154,23.613-12.449   c6.295-6.295,10.739-14.453,12.459-23.613C412.094,58.642,416.527,66.8,422.822,73.095z" data-original="#83E1E5" class="" data-old_color="#FBC640"/>
</g><path d="M503.744,234.567c4.786-0.898,8.256-5.079,8.256-9.948c0-4.871-3.47-9.05-8.257-9.948  c-9.378-1.757-17.903-6.256-24.656-13.009c-6.75-6.749-11.251-15.278-13.019-24.664c-0.901-4.784-5.079-8.248-9.946-8.248  c-4.867,0-9.046,3.464-9.946,8.248c-1.767,9.383-6.267,17.913-13.007,24.66c-6.765,6.758-15.291,11.257-24.659,13.012  c-4.786,0.898-8.256,5.076-8.257,9.946c-0.001,4.87,3.466,9.049,8.252,9.949c19.264,3.619,34.051,18.409,37.67,37.679  c0.899,4.785,5.077,8.252,9.945,8.253c0.001,0,0.001,0,0.002,0c4.868,0,9.046-3.466,9.946-8.249  c1.767-9.392,6.269-17.925,13.02-24.674C485.838,240.824,494.364,236.326,503.744,234.567z M464.775,233.262  c-3.245,3.244-6.125,6.775-8.616,10.545c-5.022-7.664-11.557-14.2-19.219-19.223c3.765-2.489,7.296-5.368,10.543-8.612  c3.255-3.259,6.144-6.808,8.639-10.594c2.5,3.789,5.392,7.339,8.652,10.598c3.257,3.258,6.801,6.147,10.586,8.643  C471.576,227.116,468.031,230.005,464.775,233.262z" data-original="#000000" class="active-path" style="fill:#000000" data-old_color="#000000"/><path d="M448.304,75.597c-6.981-1.312-13.317-4.652-18.324-9.659s-8.347-11.344-9.659-18.324c-0.9-4.785-5.079-8.252-9.947-8.252  s-9.047,3.468-9.947,8.252c-1.31,6.973-4.654,13.309-9.663,18.319c-5.019,5.011-11.359,8.354-18.332,9.665  c-4.785,0.901-8.25,5.08-8.25,9.947c0,4.869,3.466,9.047,8.251,9.947c14.315,2.69,25.304,13.68,27.994,27.995  c0.9,4.785,5.079,8.251,9.946,8.251c0.001,0,0.001,0,0.001,0c4.868,0,9.046-3.467,9.947-8.25c1.312-6.976,4.654-13.313,9.659-18.327  c5.015-5.015,11.351-8.359,18.324-9.669c4.785-0.9,8.252-5.079,8.252-9.947C456.556,80.677,453.089,76.497,448.304,75.597z   M415.661,90.853c-1.908,1.91-3.661,3.941-5.253,6.079c-3.223-4.352-7.069-8.2-11.421-11.421c2.139-1.593,4.173-3.35,6.086-5.258  c1.924-1.925,3.693-3.974,5.297-6.129c1.604,2.157,3.371,4.204,5.295,6.129s3.974,3.692,6.13,5.296  C419.637,87.154,417.587,88.926,415.661,90.853z" data-original="#000000" class="active-path" style="fill:#000000" data-old_color="#000000"/><path d="M282.572,39.361H53.44C23.973,39.361,0,63.339,0,92.812v192.434c0,28.433,22.315,51.746,50.348,53.354l10.86,42.88  c6.041,23.884,27.449,40.564,52.058,40.564c1.059,0,2.118-0.031,3.176-0.095l10.898,43.052c0.659,2.602,2.325,4.836,4.63,6.21  c1.581,0.942,3.372,1.427,5.181,1.427c0.831,0,1.666-0.102,2.484-0.31l126.849-32.113c5.419-1.371,8.699-6.876,7.328-12.294  l-11.293-44.633c16.231-9.642,27.042-25.994,29.589-44.592h135.886c5.589,0,10.121-4.532,10.121-10.121  c0-5.589-4.532-10.121-10.121-10.121H324.409c4.533-5.699,7.934-12.336,9.845-19.574h47.749c5.589,0,10.121-4.532,10.121-10.121  c0-5.589-4.532-10.121-10.121-10.121h-45.979V92.812C336.023,63.339,312.046,39.361,282.572,39.361z M53.44,59.604h229.133  c18.31,0,33.208,14.897,33.208,33.209v192.434c0,15.281-10.379,28.177-24.456,32.028c-0.167-0.787-0.331-1.577-0.528-2.358  l-27.854-109.985c-2.092-8.269-7.279-15.228-14.607-19.594c-7.324-4.365-15.913-5.618-24.185-3.521l-0.548,0.14  c-3.942,0.998-7.582,2.706-10.79,5.007l-13.716-54.154c-2.092-8.269-7.279-15.228-14.606-19.594  c-7.326-4.366-15.915-5.617-24.177-3.524c-3.976,1.007-7.615,2.731-10.795,5.012l-0.198-0.782  c-2.093-8.264-7.279-15.22-14.605-19.588c-7.326-4.368-15.915-5.618-24.186-3.526c-14.182,3.603-24.086,16.323-24.086,30.933  c0,2.649,0.329,5.292,0.978,7.858l0.2,0.791c-3.866-0.499-7.885-0.303-11.889,0.71c-14.18,3.601-24.083,16.325-24.083,30.939  c0,0.443,0.022,0.885,0.041,1.327c-4.148-0.628-8.418-0.429-12.606,0.633c-7.958,2.014-14.57,6.904-18.842,13.388V92.812  C20.242,74.501,35.135,59.604,53.44,59.604z M20.242,285.246v-65.57l21.139,83.519l3.586,14.159  C30.753,313.597,20.242,300.627,20.242,285.246z M247.793,368.163c-5.159,1.548-8.237,6.889-6.903,12.164l10.816,42.749  L144.48,450.222l-10.664-42.129c-0.659-2.602-2.325-4.836-4.63-6.211c-2.308-1.372-5.066-1.776-7.667-1.116  c-2.715,0.687-5.491,1.035-8.252,1.035c-15.331,0-28.667-10.397-32.435-25.288l-19.826-78.287L35.588,197.801  c-0.236-0.927-0.356-1.893-0.356-2.868c0-5.345,3.627-9.997,8.822-11.311c3.025-0.765,6.165-0.309,8.845,1.288  c2.68,1.598,4.579,4.145,5.343,7.165l0.002,0.008l0,0l1.039,4.121c0,0.001,0,0.001,0,0.001c0.001,0.003,0.001,0.005,0.002,0.008  l18.765,74.086c1.161,4.585,5.281,7.638,9.804,7.638c0.823,0,1.66-0.101,2.493-0.312c5.419-1.372,8.699-6.878,7.327-12.296  l-18.765-74.086c0-0.002-0.001-0.003-0.001-0.005l-1.039-4.119c0-0.001,0-0.003-0.001-0.005l-5.62-22.204  c-0.236-0.93-0.356-1.897-0.356-2.873c0-5.346,3.63-10.003,8.819-11.322c6.25-1.578,12.621,2.215,14.202,8.461l25.424,100.412  c1.161,4.585,5.281,7.639,9.805,7.639c0.822,0,1.658-0.101,2.491-0.312c5.419-1.371,8.7-6.877,7.328-12.295l-25.424-100.414  c-0.001-0.003-0.002-0.006-0.003-0.009l-7.487-29.571c-0.238-0.943-0.358-1.917-0.358-2.893c0-5.34,3.63-9.993,8.821-11.311  c3.02-0.765,6.163-0.307,8.844,1.291s4.58,4.146,5.346,7.169l25.424,100.413c0.001,0.004,0.002,0.007,0.003,0.011l7.487,29.582  c1.16,4.586,5.281,7.64,9.804,7.64c0.823,0,1.658-0.101,2.491-0.312c5.419-1.371,8.701-6.876,7.329-12.294l-7.488-29.587  c-0.001-0.003-0.001-0.006-0.002-0.009l-2.413-9.531l-15.512-61.283c-0.238-0.943-0.358-1.917-0.358-2.894  c0-5.345,3.626-9.997,8.821-11.311c3.025-0.766,6.165-0.309,8.845,1.288c2.68,1.598,4.579,4.145,5.345,7.174l21.013,82.963l0,0  l4.411,17.445c0,0.001,0.001,0.003,0.001,0.004l14.048,55.483c1.161,4.586,5.281,7.639,9.804,7.639c0.823,0,1.659-0.101,2.492-0.312  c5.419-1.371,8.7-6.877,7.328-12.295l-14.046-55.477c0-0.001,0-0.003-0.001-0.004l-4.413-17.453  c-0.766-3.023-0.309-6.166,1.288-8.845c1.597-2.681,4.145-4.579,7.18-5.347l0.55-0.14c3.024-0.768,6.167-0.309,8.845,1.288  c2.681,1.597,4.579,4.145,5.345,7.173l27.853,109.981c0.748,2.964,1.174,5.992,1.265,9  C272.948,345.874,263.29,361.224,247.793,368.163z" data-original="#000000" class="active-path" style="fill:#000000" data-old_color="#000000"/><path d="M456.124,319.121c-13.025,0-13.046,20.242,0,20.242C469.149,339.363,469.17,319.121,456.124,319.121z" data-original="#000000" class="active-path" style="fill:#000000" data-old_color="#000000"/></g></g> </svg>
